<svg width="160" height="45" viewBox="0 0 160 45" fill="none" xmlns="http://www.w3.org/2000/svg">
    <path d="M54.4937 15.5202V28.7349H52.486V15.5202H54.4937Z" fill="#0B2E4F"/>
    <path d="M59.0869 28.7349H57.1033V15.5202H59.0869L66.2045 26.2589H65.6408V15.5202H67.627V28.7349H65.6408L58.5233 17.9949H59.0869V28.7349Z" fill="#0B2E4F"/>
    <path d="M72.2469 15.5202V28.7349H70.2455V15.5202H72.2469ZM77.3261 23.2014H70.3549V21.3807H77.3261V23.2014ZM78.2906 17.3575H70.3905V15.5202H78.2906V17.3575Z" fill="#0B2E4F"/>
    <path d="M91.6465 22.1085C91.6465 23.4555 91.3768 24.643 90.8373 25.671C90.325 26.6687 89.547 27.5053 88.589 28.0885C87.6314 28.6696 86.521 28.9605 85.258 28.9614C84.0957 28.983 82.9502 28.6808 81.9499 28.0885C80.9956 27.5101 80.2208 26.678 79.7118 25.685C79.1774 24.6672 78.9102 23.4843 78.9102 22.1364C78.9102 20.7886 79.1804 19.6011 79.7207 18.5738C80.2322 17.5756 81.0104 16.7388 81.969 16.1564C82.9275 15.5736 84.0302 15.2827 85.2771 15.2835C86.524 15.2844 87.6314 15.5753 88.5992 16.1564C89.5534 16.7414 90.3281 17.5778 90.8386 18.5738C91.3772 19.596 91.6465 20.7742 91.6465 22.1085ZM89.5535 22.1085C89.5535 21.1135 89.3775 20.2521 89.0254 19.5243C88.7017 18.8281 88.1873 18.2378 87.5419 17.8219C87.0459 17.5006 86.487 17.2889 85.9027 17.201C85.3183 17.1131 84.7219 17.151 84.1533 17.3121C83.5848 17.4733 83.0572 17.754 82.6059 18.1355C82.1546 18.517 81.7899 18.9905 81.5364 19.5243C81.1776 20.2521 80.9986 21.1135 80.9994 22.1085C81.0003 23.1034 81.1793 23.9682 81.5364 24.7028C81.8036 25.2238 82.175 25.6843 82.6275 26.056C83.08 26.4276 83.6039 26.7024 84.1669 26.8633C84.7299 27.0242 85.3199 27.0678 85.9005 26.9914C86.481 26.915 87.0397 26.7203 87.5419 26.4192C88.1908 25.9995 88.7057 25.4025 89.0254 24.699C89.3934 23.886 89.5738 23.0006 89.5535 22.1085Z" fill="#0B2E4F"/>
    <path d="M99.1814 28.9525C97.909 28.9525 96.7987 28.6704 95.8504 28.1063C94.902 27.5404 94.1376 26.7124 93.6492 25.7219C93.1267 24.6964 92.8654 23.4983 92.8654 22.1275C92.8654 20.7568 93.1326 19.5642 93.667 18.5497C94.1751 17.5525 94.9584 16.7219 95.9242 16.1564C96.8954 15.5864 98.0117 15.3014 99.273 15.3014C100.222 15.2869 101.163 15.4793 102.03 15.865C102.827 16.2209 103.525 16.7644 104.066 17.4491C104.609 18.1493 104.966 18.9758 105.104 19.8513H102.967C102.754 19.0694 102.274 18.3868 101.61 17.9224C100.949 17.4618 100.151 17.2311 99.217 17.2302C98.4256 17.2117 97.6455 17.42 96.9688 17.8308C96.3253 18.2433 95.8129 18.8308 95.4916 19.5243C95.1404 20.2521 94.9644 21.1198 94.9635 22.1275C94.9439 23.0147 95.1244 23.8949 95.4916 24.7028C95.8128 25.4051 96.3285 26.0007 96.9777 26.4192C97.65 26.8334 98.4275 27.045 99.217 27.0287C100.08 27.0493 100.928 26.8046 101.647 26.3276C102.313 25.886 102.805 25.2266 103.039 24.4623H105.132C104.966 25.3268 104.588 26.1365 104.032 26.8187C103.47 27.4998 102.756 28.0394 101.947 28.3939C101.076 28.7747 100.133 28.9651 99.1814 28.9525Z" fill="#0B2E4F"/>
    <path d="M115.058 28.7349H106.943V15.5202H115.06V17.3575H108.126L108.945 16.6297V21.2025H114.442V22.9686H108.945V27.6279L108.126 26.8811H115.06L115.058 28.7349Z" fill="#0B2E4F"/>
    <path d="M119.267 28.7349H117.264V15.5202H122.27C123.712 15.5202 124.843 15.8748 125.664 16.5839C126.485 17.293 126.895 18.2812 126.893 19.5485C126.893 20.4586 126.678 21.2263 126.247 21.8514C125.792 22.4938 125.145 22.975 124.399 23.2256L127.003 28.7412H124.8L122.416 23.62H119.267V28.7349ZM119.267 17.304V21.854H122.27C123.071 21.854 123.69 21.6508 124.126 21.2445C124.562 20.8382 124.78 20.2767 124.781 19.5599C124.781 18.8321 124.56 18.274 124.117 17.8855C123.674 17.497 123.058 17.3032 122.27 17.304H119.267Z" fill="#0B2E4F"/>
    <path d="M127.739 17.3575V15.5202H137.607V17.3575H127.739ZM133.672 16.4477V28.7349H131.671V16.4477H133.672Z" fill="#0B2E4F"/>
    <path d="M146.359 15.5202V28.7349H144.358V15.5202H146.359Z" fill="#0B2E4F"/>
    <path d="M153.483 28.7349H148.97V15.5202H153.393C154.715 15.5202 155.871 15.7959 156.86 16.3472C157.835 16.8865 158.636 17.6912 159.172 18.668C159.724 19.6647 160 20.8238 160 22.1454C160 23.4432 159.727 24.5883 159.181 25.5807C158.65 26.5538 157.856 27.358 156.89 27.9015C155.917 28.4571 154.782 28.7349 153.483 28.7349ZM150.966 16.4477V27.8188L150.02 26.8722H153.328C154.174 26.8934 155.011 26.6962 155.758 26.2996C156.437 25.9233 156.988 25.3526 157.341 24.6608C157.711 23.9508 157.896 23.1106 157.897 22.1403C157.897 21.1563 157.709 20.3081 157.332 19.5956C156.971 18.8964 156.41 18.3205 155.721 17.9415C155.024 17.553 154.19 17.3588 153.218 17.3588H150.025L150.966 16.4477Z" fill="#0B2E4F"/>
    <path d="M18.3079 44.4408H7.44455C3.33866 44.4408 0 41.0055 0 36.7762V7.66467C0 3.43791 3.33866 0 7.44455 0H18.3067V2.4531H7.44455C4.69245 2.4531 2.4531 4.79042 2.4531 7.66976V36.7762C2.4531 39.6504 4.69245 41.9928 7.44455 41.9928H18.3067L18.3079 44.4408Z" fill="#0B2E4F"/>
    <path d="M36.9963 44.4408H26.054V41.9877H36.9963C39.7484 41.9877 41.989 39.6504 41.989 36.7711V7.66467C41.989 4.79042 39.7484 2.44801 36.9963 2.44801H26.054V0H36.9963C41.1022 0 44.4421 3.43536 44.4421 7.66467V36.7762C44.4421 41.0029 41.1022 44.4408 36.9963 44.4408Z" fill="#0B2E4F"/>
    <path d="M22.2649 19.9124C21.1074 19.9124 19.9758 19.5691 19.0133 18.926C18.0508 18.2829 17.3006 17.3688 16.8576 16.2993C16.4146 15.2298 16.2987 14.053 16.5246 12.9177C16.7504 11.7824 17.3078 10.7395 18.1264 9.92095C18.9449 9.10242 19.9878 8.54499 21.1231 8.31916C22.2585 8.09332 23.4353 8.20923 24.5047 8.65221C25.5742 9.0952 26.4883 9.84538 27.1314 10.8079C27.7745 11.7704 28.1178 12.9019 28.1178 14.0595C28.1178 15.6118 27.5011 17.1005 26.4035 18.1981C25.3059 19.2957 23.8172 19.9124 22.2649 19.9124ZM22.2649 10.6662C21.5929 10.6659 20.936 10.865 20.3771 11.2382C19.8182 11.6113 19.3826 12.1419 19.1253 12.7627C18.868 13.3835 18.8007 14.0667 18.9317 14.7258C19.0627 15.3849 19.3863 15.9903 19.8615 16.4655C20.3367 16.9407 20.9421 17.2643 21.6012 17.3953C22.2603 17.5264 22.9435 17.459 23.5643 17.2017C24.1851 16.9444 24.7157 16.5088 25.0889 15.9499C25.4621 15.3911 25.6611 14.7341 25.6609 14.0621C25.6595 13.1618 25.3013 12.2989 24.6647 11.6623C24.0282 11.0257 23.1652 10.6675 22.2649 10.6662Z" fill="#1E789F"/>
    <path d="M32.5863 35.3918H11.9194C11.5941 35.3918 11.2821 35.2626 11.0521 35.0326C10.8221 34.8026 10.6929 34.4906 10.6929 34.1653V30.4564C10.6929 25.951 14.1511 22.4214 18.5649 22.4214H25.9446C30.3584 22.4214 33.8154 25.951 33.8154 30.4564V34.1653C33.8156 34.3266 33.7839 34.4864 33.7221 34.6355C33.6604 34.7845 33.5698 34.9199 33.4556 35.0339C33.3414 35.1478 33.2058 35.2381 33.0567 35.2996C32.9075 35.361 32.7476 35.3923 32.5863 35.3918ZM13.146 32.9387H31.3648V30.4564C31.3648 27.3264 28.9855 24.8745 25.9471 24.8745H18.5675C15.5291 24.8745 13.1485 27.3264 13.1485 30.4564L13.146 32.9387Z" fill="#1E789F"/>
</svg>
