<?xml version="1.0" encoding="utf-8"?>
<!-- Generator: Adobe Illustrator 26.3.1, SVG Export Plug-In . SVG Version: 6.00 Build 0)  -->
<svg version="1.1" id="Livello_1" xmlns="http://www.w3.org/2000/svg" xmlns:xlink="http://www.w3.org/1999/xlink" x="0px" y="0px"
	 viewBox="0 0 500 184.5" style="enable-background:new 0 0 500 184.5;" xml:space="preserve">
<style type="text/css">
	.st0{fill:#0066CC;}
	.st1{fill-rule:evenodd;clip-rule:evenodd;fill:#FFFFFF;}
</style>
<g>
	<circle class="st0" cx="408" cy="91.8" r="87"/>
	<g>
		<path d="M10.6,18.9c0-2,1.7-3.7,3.6-3.7c2,0,3.7,1.7,3.7,3.7v58c0,2-1.7,3.7-3.7,3.7c-1.9,0-3.6-1.7-3.6-3.7V18.9z"/>
		<path d="M35.5,19c0-1.9,1.7-3.6,3.6-3.6h1c1.7,0,2.7,0.8,3.7,2.1L83,67.4V18.8c0-1.9,1.6-3.6,3.6-3.6c1.9,0,3.5,1.7,3.5,3.6V77
			c0,1.9-1.4,3.4-3.3,3.4h-0.4c-1.6,0-2.7-0.9-3.8-2.2l-40-51.1V77c0,1.9-1.6,3.6-3.6,3.6c-1.9,0-3.5-1.7-3.5-3.6V19z"/>
		<path d="M124.2,22.4h-18.7c-1.8,0-3.4-1.5-3.4-3.3c0-1.8,1.6-3.4,3.4-3.4h44.8c1.8,0,3.4,1.6,3.4,3.4c0,1.8-1.6,3.3-3.4,3.3h-18.7
			v54.5c0,2-1.7,3.7-3.7,3.7c-2,0-3.7-1.7-3.7-3.7L124.2,22.4L124.2,22.4z"/>
		<path d="M165.6,76.5V19.3c0-2,1.7-3.7,3.6-3.7h40.1c1.8,0,3.3,1.5,3.3,3.3c0,1.8-1.5,3.3-3.3,3.3h-36.4v22h32.2
			c1.8,0,3.3,1.6,3.3,3.3c0,1.8-1.5,3.3-3.3,3.3h-32.2v22.6h36.9c1.8,0,3.3,1.5,3.3,3.3c0,1.8-1.5,3.3-3.3,3.3h-40.5
			C167.3,80.1,165.6,78.5,165.6,76.5z"/>
		<path d="M223.9,72.4c-0.8-0.6-1.4-1.6-1.4-2.8c0-2,1.6-3.6,3.5-3.6c0.9,0,1.7,0.4,2.2,0.8c6.1,5.2,12.2,7.6,20.4,7.6
			c8.7,0,14.4-4.6,14.4-11v-0.2c0-6-3.2-9.4-16.8-12.3c-14.8-3.2-21.7-8-21.7-18.6v-0.2c0-10.1,8.9-17.6,21.2-17.6
			c8.5,0,14.6,2.1,20.5,6.4c0.7,0.6,1.6,1.6,1.6,3c0,1.9-1.6,3.5-3.5,3.5c-0.8,0-1.5-0.2-2.1-0.6c-5.4-4-10.7-5.6-16.7-5.6
			c-8.4,0-13.7,4.6-13.7,10.4v0.2c0,6.1,3.3,9.5,17.5,12.5c14.4,3.1,21,8.4,21,18.2v0.2c0,11.1-9.2,18.2-22,18.2
			C238.9,81.1,231.1,78.1,223.9,72.4z"/>
		<path d="M284.6,18.9c0-2,1.7-3.7,3.6-3.7c2,0,3.7,1.7,3.7,3.7v58c0,2-1.7,3.7-3.7,3.7c-1.9,0-3.6-1.7-3.6-3.7V18.9z"/>
	</g>
	<g>
		<path d="M5.6,133.7v-0.2c0-15.2,11.2-28.7,27.8-28.7c8.4,0,13.9,2.2,18.9,5.9c0.7,0.6,1.3,1.4,1.3,2.5c0,1.7-1.4,3.2-3.1,3.2
			c-0.7,0-1.3-0.3-2-0.8c-4-3-8.4-5.1-15.4-5.1c-12.3,0-21.1,10.4-21.1,22.7v0.2c0,13.2,8.5,23.1,21.9,23.1c6.3,0,12.2-2.5,16-5.5
			v-13.8H35.2c-1.5,0-2.8-1.3-2.8-2.8c0-1.6,1.3-2.8,2.8-2.8H53c1.7,0,3.1,1.4,3.1,3.2v16.9c0,1.5-0.7,2.8-2.1,3.8
			c-5.1,3.7-11.9,6.7-20.1,6.7C16.4,162.2,5.6,149.5,5.6,133.7z"/>
		<path d="M70.2,109c0-1.7,1.4-3.2,3.1-3.2H94c6.8,0,12.3,2.1,15.8,5.5c2.7,2.7,4.3,6.6,4.3,10.9v0.2c0,9.1-6.2,14.4-14.8,16.1
			l13.8,17.7c0.6,0.7,1,1.4,1,2.3c0,1.7-1.6,3.1-3.2,3.1c-1.3,0-2.2-0.7-2.9-1.7l-15.6-20.3H76.4v18.8c0,1.7-1.4,3.2-3.2,3.2
			c-1.7,0-3.1-1.4-3.1-3.2V109z M93.5,134.1c8.3,0,14.3-4.3,14.3-11.4v-0.2c0-6.8-5.2-10.9-14.2-10.9H76.4v22.5L93.5,134.1
			L93.5,134.1z"/>
		<path d="M125,133.7v-0.2c0-15.3,11.5-28.7,28.4-28.7c16.9,0,28.2,13.2,28.2,28.5v0.2c0,15.3-11.5,28.7-28.3,28.7
			C136.3,162.2,125,149,125,133.7z M175,133.7v-0.2c0-12.6-9.2-22.9-21.9-22.9s-21.7,10.1-21.7,22.7v0.2c0,12.6,9.2,22.9,21.9,22.9
			C166,156.4,175,146.3,175,133.7z"/>
		<path d="M193.9,138v-29.5c0-1.7,1.4-3.2,3.1-3.2c1.7,0,3.2,1.4,3.2,3.2v29.1c0,12,6.4,18.7,17,18.7c10.2,0,16.7-6.2,16.7-18.3
			v-29.5c0-1.7,1.4-3.2,3.2-3.2c1.7,0,3.1,1.4,3.1,3.2v29c0,16.2-9.3,24.6-23.1,24.6C203.2,162.1,193.9,153.7,193.9,138z"/>
		<path d="M254.9,109c0-1.7,1.4-3.2,3.1-3.2h17.7c12.5,0,20.7,6.7,20.7,17.6v0.2c0,12-10,18.1-21.8,18.1h-13.5v16.8
			c0,1.7-1.4,3.2-3.2,3.2c-1.7,0-3.1-1.4-3.1-3.2V109z M274.8,136c9.2,0,15.2-4.9,15.2-12.2v-0.2c0-7.9-5.9-12-14.9-12h-14V136
			L274.8,136L274.8,136z"/>
	</g>
	<g id="SPID-1280-home_00000018205375307400740890000016177233088412472251_">
		<g id="Hero-block-home_00000047036433826019599850000012586083955070267547_">
			<g id="Group-7_00000162332291028136919030000000345822807828286399_" transform="translate(0 0)">
				<path id="Fill-198_00000011750709082880208410000002562703752293242013_" class="st1" d="M364.6,85.2c-4-0.6-8-1-12-1.1
					c-2.3,0-3.8,0.2-4.4,0.6c-0.7,0.4-1.1,1.2-1,2c0,0.9,0.5,1.6,1.3,1.9c2.3,0.7,4.6,1.2,6.9,1.5c3.7,0.7,6.4,1.8,7.9,3.3
					c1.6,1.5,2.4,4,2.4,7.5c0,7.6-4.6,11.4-13.9,11.4c-3.7-0.1-7.4-0.5-11.1-1.3l-2.2-0.4l0.3-7.9c4,0.6,7.9,1,11.9,1.1
					c1.6,0.1,3.1-0.1,4.6-0.7c0.8-0.4,1.2-1.2,1.2-2c0-0.9-0.5-1.6-1.3-2c-2.2-0.7-4.4-1.3-6.6-1.5c-3.6-0.6-6.2-1.6-8-3.1
					c-1.8-1.5-2.6-4-2.6-7.8s1.2-6.5,3.7-8.4c2.8-2,6.2-3,9.6-2.8c3.7,0.1,7.5,0.6,11.1,1.3l2.3,0.4L364.6,85.2z"/>
				<path id="Fill-200_00000014599678817260673690000016181880682999562894_" class="st1" d="M372.5,126.6V76.5h9.4v1.9
					c3.1-1.8,5.8-2.8,8.1-2.8c4.8,0,8.3,1.4,10.6,4.3c2.3,2.8,3.4,7.7,3.4,14.5c0,6.8-1.3,11.6-3.8,14.2c-2.5,2.7-6.6,4-12.3,4
					c-1.7,0-3.4-0.2-5-0.4L382,112v14.5H372.5z M388.2,84.1c-1.8,0-3.6,0.4-5.3,1.1l-0.9,0.4V104c1.7,0.2,3.4,0.4,5.2,0.4
					c2.7,0,4.6-0.8,5.6-2.4c1-1.6,1.5-4.3,1.5-8.2C394.3,87.3,392.3,84.1,388.2,84.1z"/>
				<path id="Fill-202_00000096775979624258293840000018257627619310905530_" class="st1" d="M467.7,62.1v49.4h-9.3V110
					c-2.6,1.4-5.5,2.2-8.5,2.3c-5.1,0-8.6-1.5-10.7-4.4s-3-7.7-3-14.1c0-6.4,1.2-11.1,3.6-14c2.4-2.9,6-4.4,10.9-4.4
					c2.1,0.1,4.2,0.3,6.2,0.7l1.3,0.3V62.1H467.7z M457.3,103l1-0.2V84.3c-2.3-0.4-4.6-0.7-6.9-0.7c-3.8,0-5.7,3.4-5.7,10.2
					c0,3.7,0.4,6.3,1.3,7.8c0.8,1.5,2.4,2.5,4.2,2.3C453.3,103.9,455.3,103.6,457.3,103L457.3,103z"/>
				<path id="Fill-204_00000140714683891128743330000009905517394521890176_" class="st1" d="M420.6,96.6c-2.7,0.1-5.2-1-7.1-2.9
					c-1.9-2-2.9-4.6-2.8-7.3c-0.1-2.7,0.9-5.3,2.8-7.2c1.8-1.9,4.4-3,7.1-2.9c2.6-0.1,5.2,1,7,2.9c1.8,2,2.8,4.6,2.7,7.3
					c0.1,2.7-0.9,5.2-2.7,7.2C425.7,95.6,423.2,96.7,420.6,96.6"/>
				<path id="Fill-206_00000092423951127262537330000009653995489658938012_" class="st1" d="M410.7,111.5c-0.1-2.7,0.9-5.4,2.8-7.4
					c1.8-2,4.4-3,7.1-3c2.7-0.1,5.2,1,7,3c1.8,2.1,2.8,4.7,2.7,7.5"/>
			</g>
		</g>
	</g>
</g>
</svg>
